<svg
      xmlns="http://www.w3.org/2000/svg"
      viewBox="0 0 512 512"
      width="75%"
      height="75%"
    >
      <defs>
        <rect id="pin-v" width="16" height="40" rx="4" fill="#0A2540" />
        <rect id="pin-h" width="40" height="16" rx="4" fill="#0A2540" />
        
        <mask id="processor-hole">
          <rect width="100%" height="100%" fill="white" />
          <rect x="250" y="110" width="140" height="140" rx="15" fill="black" />
        </mask>
      </defs>

      <path
        d="M 430 320 L 200 320 C 170 320 160 300 150 270 L 120 160 C 115 140 100 130 80 130 L 50 130"
        fill="none"
        stroke="#0A2540"
        stroke-width="24"
        stroke-linecap="round"
        stroke-linejoin="round"
      />

      <circle cx="240" cy="370" r="28" fill="#0A2540" />
      <circle cx="380" cy="370" r="28" fill="#0A2540" />

      <use href="#pin-v" x="266" y="60" />
      <use href="#pin-v" x="312" y="60" />
      <use href="#pin-v" x="358" y="60" />

      <use href="#pin-v" x="266" y="260" />
      <use href="#pin-v" x="312" y="260" />
      <use href="#pin-v" x="358" y="260" />

      <use href="#pin-h" x="200" y="126" />
      <use href="#pin-h" x="200" y="172" />
      <use href="#pin-h" x="200" y="218" />

      <use href="#pin-h" x="400" y="126" />
      <use href="#pin-h" x="400" y="172" />
      <use href="#pin-h" x="400" y="218" />

      <rect x="220" y="80" width="200" height="200" rx="24" fill="#0A2540" mask="url(#processor-hole)" />

      <path
        d="M 327.5 130 L 287.5 195 L 317.5 195 L 302.5 230 L 352.5 165 L 322.5 165 Z"
        fill="#0A2540"
      />
</svg>
